<svg width="271" height="116" viewBox="0 0 271 116" fill="none" xmlns="http://www.w3.org/2000/svg">
<g filter="url(#filter0_d_604_4316)">
<rect x="4" width="263" height="108" rx="12" fill="#000B0B"/>
<rect x="4.5" y="0.5" width="262" height="107" rx="11.5" stroke="url(#paint0_radial_604_4316)"/>
</g>
<path d="M42.5449 23.0456C41.2656 20.8334 42.3352 17.9938 44.7471 17.1989C46.548 16.6054 48.5136 17.3754 49.4466 19.04L88.5514 88.8089C89.6448 90.7596 88.6519 93.2297 86.5214 93.8595C85.0028 94.3085 83.3765 93.655 82.5787 92.2753L42.5449 23.0456Z" fill="url(#paint1_linear_604_4316)"/>
<path d="M37.5315 49.3024V23.9488C37.5315 23.5944 37.5357 23.2722 37.5441 22.9823C37.5784 21.8026 38.079 20.713 39.0737 20.0635C39.2406 19.9545 39.4223 19.841 39.6189 19.7232L41.915 18.3146C42.9587 17.6886 43.6893 17.313 44.1068 17.1878C44.5243 17.0626 45.394 17 46.7161 17C47.7536 17 48.5947 17.8332 48.5947 18.8609V20.6622C48.5947 22.102 48.4904 23.0098 48.2816 23.3854C48.1425 23.6984 47.6206 24.1679 46.7161 24.7939C45.8811 25.2947 45.394 25.7329 45.2549 26.1085C45.1157 26.4215 45.0461 27.298 45.0461 28.7378V51.8378C45.0461 53.2776 44.9418 54.2167 44.733 54.6549C44.5939 55.0305 44.0024 55.5939 42.9587 56.3451L40.2451 58.4279V59V60V60.5557L42.9587 62.5427C43.017 62.5846 43.0738 62.626 43.1292 62.667C44.3808 63.5916 45.0174 65.0702 45.0427 66.6165C45.045 66.7552 45.0461 66.8997 45.0461 67.05V74.6561V82.2622C45.0461 83.702 45.1157 84.5784 45.2549 84.8915C45.394 85.2671 45.8811 85.7053 46.7161 86.2061C47.6206 86.8321 48.1425 87.3016 48.2816 87.6146C48.4904 87.9902 48.5947 88.898 48.5947 90.3378V92.1391C48.5947 93.1668 47.7536 94 46.7161 94C45.394 94 44.5243 93.9374 44.1068 93.8122C43.6893 93.687 42.9587 93.3114 41.915 92.6854L39.6189 91.2768C39.4223 91.159 39.2406 91.0455 39.0737 90.9365C38.079 90.287 37.5784 89.1974 37.5441 88.0177C37.5357 87.7278 37.5315 87.4056 37.5315 87.0512V69.5854C37.5315 68.2081 36.9052 67.0187 35.6528 66.0171L34.9919 65.5074C33.1039 64.0514 31.9998 61.814 31.9998 59.4439C31.9998 57.0738 33.1039 54.8364 34.9919 53.3804L35.6528 52.8707C36.9052 51.8691 37.5315 50.6797 37.5315 49.3024Z" fill="#22CECE"/>
<path d="M94.0632 49.3024V23.9488C94.0632 23.5944 94.059 23.2722 94.0506 22.9823C94.0163 21.8026 93.5157 20.713 92.521 20.0635C92.3541 19.9545 92.1724 19.841 91.9758 19.7232L89.6797 18.3146C88.636 17.6886 87.9054 17.313 87.4879 17.1878C87.0704 17.0626 86.2007 17 84.8787 17C83.8411 17 83 17.8332 83 18.8609V20.6622C83 22.102 83.1044 23.0098 83.3131 23.3854C83.4523 23.6984 83.9741 24.1679 84.8787 24.7939C85.7136 25.2947 86.2007 25.7329 86.3398 26.1085C86.479 26.4215 86.5486 27.298 86.5486 28.7378V51.8378C86.5486 53.2776 86.653 54.2167 86.8617 54.6549C87.0009 55.0305 87.5923 55.5939 88.636 56.3451L91.3496 58.4279V59V60V60.5557L88.636 62.5427C88.5777 62.5846 88.5209 62.626 88.4655 62.667C87.214 63.5916 86.5774 65.0702 86.552 66.6165C86.5497 66.7552 86.5486 66.8997 86.5486 67.05V74.6561V82.2622C86.5486 83.702 86.479 84.5784 86.3398 84.8915C86.2007 85.2671 85.7136 85.7053 84.8787 86.2061C83.9741 86.8321 83.4523 87.3016 83.3131 87.6146C83.1044 87.9902 83 88.898 83 90.3378V92.1391C83 93.1668 83.8411 94 84.8787 94C86.2007 94 87.0704 93.9374 87.4879 93.8122C87.9054 93.687 88.636 93.3114 89.6797 92.6854L91.9758 91.2768C92.1724 91.159 92.3541 91.0455 92.521 90.9365C93.5157 90.287 94.0163 89.1974 94.0506 88.0177C94.059 87.7278 94.0632 87.4056 94.0632 87.0512V69.5854C94.0632 68.2081 94.6895 67.0187 95.9419 66.0171L96.6028 65.5074C98.4908 64.0515 99.5948 61.814 99.5948 59.4439C99.5948 57.0738 98.4908 54.8364 96.6028 53.3804L95.9419 52.8707C94.6895 51.8691 94.0632 50.6797 94.0632 49.3024Z" fill="#22CECE"/>
<path d="M142.848 90.84H142.432C142.432 91.672 141.669 92.5387 140.144 93.44C138.896 94.2027 138.029 94.6533 137.544 94.792C137.128 94.9307 136.296 95 135.048 95H117.264C115.6 95 113.936 94.3067 112.272 92.92L109.776 90.84C108.112 89.4533 107.28 87.72 107.28 85.64V73.16C107.28 71.08 108.112 69.3467 109.776 67.96L112.272 65.88C113.936 64.4933 115.6 63.8 117.264 63.8H135.88C137.197 63.8 138.029 63.8693 138.376 64.008C138.723 64.0773 139.173 64.3547 139.728 64.84C140.56 65.5333 140.976 66.2267 140.976 66.92H141.392V54.544C141.392 53.504 141.323 52.8453 141.184 52.568C141.115 52.2213 140.768 51.8053 140.144 51.32C139.52 50.8347 139.035 50.5573 138.688 50.488C138.341 50.3493 137.544 50.28 136.296 50.28H119.448C118.2 50.28 117.333 50.384 116.848 50.592C116.432 50.7307 115.6 51.32 114.352 52.36L108.112 47.16L110.608 45.08C111.856 44.04 112.688 43.4507 113.104 43.312C113.589 43.104 114.456 43 115.704 43H140.144C141.808 43 143.472 43.6933 145.136 45.08L147.632 47.16C149.296 48.5467 150.128 50.28 150.128 52.36V83.456C150.128 84.496 150.163 85.1893 150.232 85.536C150.371 85.8133 150.752 86.1947 151.376 86.68C152 87.1653 152.347 87.5813 152.416 87.928C152.555 88.2053 152.624 88.864 152.624 89.904V95H148.984C147.736 95 146.869 94.9307 146.384 94.792C145.968 94.584 145.344 94.1333 144.512 93.44C143.403 92.5387 142.848 91.672 142.848 90.84ZM116.016 75.344V83.456C116.016 84.496 116.051 85.1893 116.12 85.536C116.259 85.8133 116.64 86.1947 117.264 86.68C117.888 87.1653 118.373 87.4773 118.72 87.616C119.067 87.6853 119.864 87.72 121.112 87.72H133.8C135.048 87.72 135.88 87.6507 136.296 87.512C136.781 87.3733 137.648 86.9227 138.896 86.16C140.144 85.3973 140.872 84.8427 141.08 84.496C141.288 84.1493 141.392 83.456 141.392 82.416V75.344C141.392 74.304 141.323 73.6453 141.184 73.368C141.115 73.0213 140.768 72.6053 140.144 72.12C139.52 71.6347 139.035 71.3573 138.688 71.288C138.341 71.1493 137.544 71.08 136.296 71.08H121.112C119.864 71.08 119.067 71.1493 118.72 71.288C118.373 71.3573 117.888 71.6347 117.264 72.12C116.64 72.6053 116.259 73.0213 116.12 73.368C116.051 73.6453 116.016 74.304 116.016 75.344ZM201.338 83.456V54.544C201.338 53.504 201.269 52.8453 201.13 52.568C201.061 52.2213 200.714 51.8053 200.09 51.32C199.466 50.8347 198.981 50.5573 198.634 50.488C198.288 50.3493 197.49 50.28 196.242 50.28H181.578C180.261 50.28 179.36 50.3493 178.874 50.488C178.458 50.6267 177.626 51.0773 176.378 51.84C175.13 52.6027 174.402 53.1573 174.194 53.504C173.986 53.8507 173.882 54.544 173.882 55.584V82.416C173.882 83.456 173.986 84.1493 174.194 84.496C174.402 84.8427 175.13 85.3973 176.378 86.16C177.626 86.9227 178.458 87.3733 178.874 87.512C179.36 87.6507 180.226 87.72 181.474 87.72H196.242C197.49 87.72 198.288 87.6853 198.634 87.616C198.981 87.4773 199.466 87.1653 200.09 86.68C200.714 86.1947 201.061 85.8133 201.13 85.536C201.269 85.1893 201.338 84.496 201.338 83.456ZM173.882 18.04V47.888H174.298C174.298 47.264 175.061 46.2933 176.586 44.976C178.112 43.6587 179.429 43 180.538 43H200.09C201.754 43 203.418 43.6933 205.082 45.08L207.578 47.16C209.242 48.5467 210.074 50.28 210.074 52.36V85.64C210.074 87.72 209.242 89.4533 207.578 90.84L205.082 92.92C203.418 94.3067 201.754 95 200.09 95H180.642C179.394 95 178.528 94.9307 178.042 94.792C177.626 94.6533 176.794 94.2027 175.546 93.44C173.952 92.6773 173.12 91.9147 173.05 91.152H172.634V95H165.146V18.04H173.882ZM223.049 18.04H231.785V82C231.785 83.5947 231.854 84.6 231.993 85.016C232.132 85.3627 232.617 85.8133 233.449 86.368C234.35 87.0613 234.87 87.616 235.009 88.032C235.217 88.3787 235.321 89.3493 235.321 90.944V95H232.201C230.884 95 230.017 94.9307 229.601 94.792C229.185 94.6533 228.457 94.2373 227.417 93.544L225.129 91.984C224.089 91.2907 223.465 90.736 223.257 90.32C223.118 89.904 223.049 88.8987 223.049 87.304V18.04Z" fill="#22CECE"/>
<defs>
<filter id="filter0_d_604_4316" x="0" y="0" width="271" height="116" filterUnits="userSpaceOnUse" color-interpolation-filters="sRGB">
<feFlood flood-opacity="0" result="BackgroundImageFix"/>
<feColorMatrix in="SourceAlpha" type="matrix" values="0 0 0 0 0 0 0 0 0 0 0 0 0 0 0 0 0 0 127 0" result="hardAlpha"/>
<feOffset dy="4"/>
<feGaussianBlur stdDeviation="2"/>
<feComposite in2="hardAlpha" operator="out"/>
<feColorMatrix type="matrix" values="0 0 0 0 0 0 0 0 0 0 0 0 0 0 0 0 0 0 0.25 0"/>
<feBlend mode="normal" in2="BackgroundImageFix" result="effect1_dropShadow_604_4316"/>
<feBlend mode="normal" in="SourceGraphic" in2="effect1_dropShadow_604_4316" result="shape"/>
</filter>
<radialGradient id="paint0_radial_604_4316" cx="0" cy="0" r="1" gradientUnits="userSpaceOnUse" gradientTransform="translate(-17 -11) rotate(22.1095) scale(345.398 841.109)">
<stop stop-color="#044F4F"/>
<stop offset="0.491709" stop-color="#22CECE"/>
<stop offset="1"/>
</radialGradient>
<linearGradient id="paint1_linear_604_4316" x1="95" y1="107" x2="-4.82642" y2="7.3842" gradientUnits="userSpaceOnUse">
<stop stop-color="#073939"/>
<stop offset="0.401277" stop-color="#03FFFF"/>
<stop offset="0.989903" stop-color="#073939"/>
</linearGradient>
</defs>
</svg>
